<svg width="75" height="75" viewBox="0 0 75 75" fill="none" xmlns="http://www.w3.org/2000/svg">
<path d="M29.4567 9.57091C33.3863 7.35697 35.3512 6.25 37.5 6.25C39.6488 6.25 41.6138 7.35697 45.5434 9.57091L51.0122 12.6519C55.0913 14.95 57.1309 16.0991 58.2528 18.0208C59.375 19.9424 59.375 22.2862 59.375 26.9737V32.4012C59.375 37.0887 59.375 39.4325 58.2528 41.3544C57.1309 43.2759 55.0913 44.425 51.0122 46.7231L45.5434 49.8041C41.6138 52.0181 39.6488 53.125 37.5 53.125C35.3512 53.125 33.3863 52.0181 29.4567 49.8041L23.9879 46.7231C19.9088 44.425 17.8692 43.2759 16.7471 41.3544C15.625 39.4325 15.625 37.0887 15.625 32.4012V26.9737C15.625 22.2862 15.625 19.9424 16.7471 18.0208C17.8692 16.0991 19.9088 14.95 23.9879 12.6519L29.4567 9.57091Z" stroke="#C0943E" stroke-width="4.6875" stroke-linejoin="round"/>
<path d="M28.125 31.7709C28.125 31.7709 30.4688 31.7709 32.8125 35.9375C32.8125 35.9375 40.2575 25.5208 46.875 23.4375" stroke="#C0943E" stroke-width="4.6875" stroke-linecap="round" stroke-linejoin="round"/>
<path d="M52.7578 46.875L54.8522 56.9059C56.1978 63.3509 56.8706 66.5734 55.4884 68.1009C54.1066 69.6281 51.7063 68.3144 46.9059 65.6869L39.8013 61.7978C38.6669 61.1769 38.0997 60.8666 37.5 60.8666C36.9003 60.8666 36.3331 61.1769 35.1988 61.7978L28.094 65.6869C23.2937 68.3144 20.8935 69.6281 19.5114 68.1009C18.1293 66.5734 18.8022 63.3509 20.1478 56.9059L22.2423 46.875" stroke="#C0943E" stroke-width="4.6875" stroke-linecap="round" stroke-linejoin="round"/>
</svg>
