<svg width="75" height="75" viewBox="0 0 75 75" fill="none" xmlns="http://www.w3.org/2000/svg">
<path d="M9.375 34.375L9.85275 44.4591C10.3661 55.2144 10.6227 60.5919 14.2464 63.8897C17.8701 67.1875 23.5224 67.1875 34.8269 67.1875H40.1731C51.4775 67.1875 57.13 67.1875 60.7538 63.8897C64.3772 60.5919 64.6341 55.2144 65.1472 44.4591L65.625 34.375" stroke="#C0943E" stroke-width="4.6875" stroke-linecap="round" stroke-linejoin="round"/>
<path d="M8.89744 32.6347C14.2078 42.7325 26.185 46.875 37.5 46.875C48.815 46.875 60.7922 42.7325 66.1025 32.6347C68.6375 27.8143 66.7181 18.75 60.475 18.75H14.525C8.28197 18.75 6.3626 27.8143 8.89744 32.6347Z" stroke="#C0943E" stroke-width="4.6875"/>
<path d="M37.5 34.375H37.5281" stroke="#C0943E" stroke-width="6.25" stroke-linecap="round" stroke-linejoin="round"/>
<path d="M50.0001 18.75L49.7241 17.7842C48.3491 12.9715 47.6616 10.5652 46.0248 9.18884C44.3879 7.8125 42.2138 7.8125 37.8654 7.8125H37.1344C32.7863 7.8125 30.6121 7.8125 28.9753 9.18884C27.3385 10.5652 26.651 12.9715 25.2759 17.7842L25 18.75" stroke="#C0943E" stroke-width="4.6875"/>
</svg>
