<svg width="427" height="427" viewBox="0 0 427 427" fill="none" xmlns="http://www.w3.org/2000/svg">
<path d="M352.537 52.08C312.115 17.2428 260.091 -1.15583 206.754 0.523121C153.418 2.20207 102.654 23.8364 64.5026 61.1469C26.3515 98.4575 3.59183 148.727 0.725229 202.013C-2.14137 255.299 15.0939 307.72 49.022 348.908C82.9502 390.096 131.1 417.052 183.949 424.443C236.797 431.834 290.495 419.123 334.421 388.824C378.348 358.524 409.304 312.843 421.166 260.815C433.028 208.788 424.934 154.203 398.483 107.857L299.408 164.402C311.695 185.931 315.456 211.288 309.945 235.457C304.435 259.625 290.055 280.846 269.649 294.921C249.244 308.996 224.299 314.901 199.749 311.467C175.199 308.034 152.832 295.512 137.071 276.379C121.31 257.245 113.304 232.894 114.636 208.141C115.967 183.388 126.54 160.036 144.262 142.704C161.985 125.372 185.567 115.322 210.343 114.542C235.12 113.762 259.287 122.309 278.065 138.492L352.537 52.08Z" fill="white" fill-opacity="0.25"/>
</svg>
