<svg width="427" height="233" viewBox="0 0 427 233" fill="none" xmlns="http://www.w3.org/2000/svg">
<path d="M567.213 381.714C588.188 310.267 581.586 233.549 548.713 166.736C515.84 99.923 459.089 47.8797 389.687 20.9C320.284 -6.07977 243.283 -6.03105 173.914 21.0365C104.546 48.104 47.8613 100.219 15.0726 167.074C-17.7161 233.929 -24.2211 310.654 -3.15576 382.075C17.9096 453.495 65.0112 514.41 128.833 552.769C192.654 591.129 268.548 604.141 341.502 589.23C414.456 574.32 479.158 532.574 522.811 472.249L393.852 378.932C373.574 406.955 343.518 426.347 309.628 433.274C275.738 440.2 240.483 434.156 210.835 416.336C181.188 398.517 159.308 370.22 149.522 337.043C139.737 303.865 142.758 268.224 157.99 237.167C173.221 206.111 199.553 181.902 231.777 169.328C264.002 156.754 299.771 156.731 332.011 169.264C364.251 181.797 390.614 205.973 405.885 237.01C421.155 268.047 424.222 303.685 414.479 336.875L567.213 381.714Z" fill="#C0943E" fill-opacity="0.2"/>
</svg>
