<svg width="75" height="75" viewBox="0 0 75 75" fill="none" xmlns="http://www.w3.org/2000/svg">
<path d="M37.5 68.75C54.7589 68.75 68.75 54.7589 68.75 37.5C68.75 20.2411 54.7589 6.25 37.5 6.25C20.2411 6.25 6.25 20.2411 6.25 37.5C6.25 54.7589 20.2411 68.75 37.5 68.75Z" stroke="#C0943E" stroke-width="4.6875"/>
<path d="M25 37.5C25 56.25 37.5 68.75 37.5 68.75C37.5 68.75 50 56.25 50 37.5C50 18.75 37.5 6.25 37.5 6.25C37.5 6.25 25 18.75 25 37.5Z" stroke="#C0943E" stroke-width="4.6875" stroke-linejoin="round"/>
<path d="M65.625 46.875H9.375" stroke="#C0943E" stroke-width="4.6875" stroke-linecap="round" stroke-linejoin="round"/>
<path d="M65.625 28.125H9.375" stroke="#C0943E" stroke-width="4.6875" stroke-linecap="round" stroke-linejoin="round"/>
</svg>
