<svg width="75" height="75" viewBox="0 0 75 75" fill="none" xmlns="http://www.w3.org/2000/svg">
<path d="M6.25 25C6.25 29.1931 31.5466 40.625 37.4566 40.625C43.3663 40.625 68.6631 29.1931 68.6631 25C68.6631 20.8069 43.3663 9.375 37.4566 9.375C31.5466 9.375 6.25 20.8069 6.25 25Z" stroke="#C0943E" stroke-width="4.6875" stroke-linecap="round" stroke-linejoin="round"/>
<path d="M18.7317 34.375L19.4977 51.9684C19.513 52.3206 19.5511 52.6734 19.6532 53.0109C19.9687 54.0541 20.5503 55.0019 21.4375 55.6387C28.3796 60.6203 46.5316 60.6203 53.4734 55.6387C54.3612 55.0019 54.9425 54.0541 55.2581 53.0109C55.36 52.6734 55.3981 52.3206 55.4138 51.9684L56.1794 34.375" stroke="#C0943E" stroke-width="4.6875" stroke-linecap="round" stroke-linejoin="round"/>
<path d="M63.9793 29.6875V51.5625M63.9793 51.5625C61.5043 56.0822 60.4099 58.5037 59.2983 62.5C59.0571 63.9219 59.2486 64.6384 60.2286 65.2747C60.6268 65.5331 61.1052 65.625 61.5796 65.625H66.3308C66.8362 65.625 67.3458 65.5197 67.7618 65.2328C68.6727 64.6047 68.9071 63.9156 68.6602 62.5C67.6858 58.7894 66.4446 56.2525 63.9793 51.5625Z" stroke="#C0943E" stroke-width="4.6875" stroke-linecap="round" stroke-linejoin="round"/>
</svg>
