<svg width="48" height="41" viewBox="0 0 48 41" fill="none" xmlns="http://www.w3.org/2000/svg">
<path d="M7.87503 16.1396C7.30201 20.5262 6.96056 24.94 6.85212 29.3625C12.8496 31.8677 18.5921 34.9444 24 38.55C29.4087 34.9443 35.1518 31.8676 41.15 29.3625C41.0415 24.94 40.7001 20.5262 40.1271 16.1396M40.1271 16.1396C41.95 15.5271 43.7979 14.9604 45.6646 14.4438C38.8658 9.67762 31.6083 5.60187 24 2.2771C16.3917 5.60257 9.1342 9.67901 2.33545 14.4458C4.19643 14.9597 6.04296 15.5245 7.87295 16.1396C13.4326 18.0088 18.8269 20.3377 24 23.1021C29.1724 20.3376 34.5681 18.0088 40.1271 16.1396ZM13.0625 26.25C13.4769 26.25 13.8744 26.0854 14.1674 25.7924C14.4604 25.4993 14.625 25.1019 14.625 24.6875C14.625 24.2731 14.4604 23.8757 14.1674 23.5827C13.8744 23.2896 13.4769 23.125 13.0625 23.125C12.6481 23.125 12.2507 23.2896 11.9577 23.5827C11.6647 23.8757 11.5 24.2731 11.5 24.6875C11.5 25.1019 11.6647 25.4993 11.9577 25.7924C12.2507 26.0854 12.6481 26.25 13.0625 26.25ZM13.0625 26.25V18.5938C16.5974 16.3966 20.2486 14.3922 24 12.5896M9.40212 36.6521C10.5646 35.4925 11.4864 34.1146 12.1145 32.5976C12.7427 31.0806 13.0649 29.4544 13.0625 27.8125V24.6875" stroke="white" stroke-width="3.5" stroke-linecap="round" stroke-linejoin="round"/>
</svg>
