<svg width="75" height="75" viewBox="0 0 75 75" fill="none" xmlns="http://www.w3.org/2000/svg">
<path d="M37.5 68.75L31.25 50H6.25L12.5 68.75H37.5ZM37.5 68.75H50" stroke="#C0943E" stroke-width="4.6875" stroke-linecap="round" stroke-linejoin="round"/>
<path d="M37.5 40.625V39.0625C37.5 33.17 37.5 30.2237 35.6694 28.3931C33.8387 26.5625 30.8926 26.5625 25 26.5625C19.1074 26.5625 16.1612 26.5625 14.3306 28.3931C12.5 30.2237 12.5 33.17 12.5 39.0625V40.625" stroke="#C0943E" stroke-width="4.6875" stroke-linecap="round" stroke-linejoin="round"/>
<path d="M59.375 40.625C59.375 44.0769 56.5769 46.875 53.125 46.875C49.6731 46.875 46.875 44.0769 46.875 40.625C46.875 37.1731 49.6731 34.375 53.125 34.375C56.5769 34.375 59.375 37.1731 59.375 40.625Z" stroke="#C0943E" stroke-width="4.6875"/>
<path d="M31.25 12.5C31.25 15.9518 28.4518 18.75 25 18.75C21.5482 18.75 18.75 15.9518 18.75 12.5C18.75 9.04822 21.5482 6.25 25 6.25C28.4518 6.25 31.25 9.04822 31.25 12.5Z" stroke="#C0943E" stroke-width="4.6875"/>
<path d="M43.75 54.6875H62.5C65.9519 54.6875 68.75 57.4856 68.75 60.9375V62.5C68.75 65.9519 65.9519 68.75 62.5 68.75H59.375" stroke="#C0943E" stroke-width="4.6875" stroke-linecap="round"/>
</svg>
