<svg width="1033" height="941" viewBox="0 0 1033 941" fill="none" xmlns="http://www.w3.org/2000/svg">
<g filter="url(#filter0_f_79_392)">
<path fill-rule="evenodd" clip-rule="evenodd" d="M454.159 215.818C502.418 203.27 472.116 339.025 520.85 349.466C617.625 370.199 732.006 223.676 805.818 291.16C865.185 345.437 689.159 408.377 672.559 488.168C657.878 558.728 764.558 636.654 721.989 694.08C680.72 749.752 583.222 721.753 521.638 691.76C470.302 666.757 483.925 549.218 427.112 550.464C329.813 552.596 274.232 726.212 180.529 699.236C112.732 679.719 223.58 562.723 219.204 490.611C215.392 427.792 104.271 348.443 157.324 316.851C232.7 271.965 323.428 407.444 406.146 379.29C459.878 361.001 399.282 230.087 454.159 215.818Z" fill="#002B5B" fill-opacity="0.6"/>
</g>
<defs>
<filter id="filter0_f_79_392" x="-71.8" y="0.199997" width="1104.6" height="940.6" filterUnits="userSpaceOnUse" color-interpolation-filters="sRGB">
<feFlood flood-opacity="0" result="BackgroundImageFix"/>
<feBlend mode="normal" in="SourceGraphic" in2="BackgroundImageFix" result="shape"/>
<feGaussianBlur stdDeviation="107.4" result="effect1_foregroundBlur_79_392"/>
</filter>
</defs>
</svg>
