<svg width="50" height="50" viewBox="0 0 50 50" fill="none" xmlns="http://www.w3.org/2000/svg">
<path d="M6.25 27.3437C6.25 26.05 7.3 25 8.59375 25H13.2812C14.575 25 15.625 26.05 15.625 27.3437V41.4062C15.625 42.7 14.575 43.75 13.2812 43.75H8.59375C7.97215 43.75 7.37601 43.5031 6.93647 43.0635C6.49693 42.624 6.25 42.0278 6.25 41.4062V27.3437ZM20.3125 17.9687C20.3125 16.675 21.3625 15.625 22.6562 15.625H27.3437C28.6375 15.625 29.6875 16.675 29.6875 17.9687V41.4062C29.6875 42.7 28.6375 43.75 27.3437 43.75H22.6562C22.0346 43.75 21.4385 43.5031 20.999 43.0635C20.5594 42.624 20.3125 42.0278 20.3125 41.4062V17.9687ZM34.375 8.59375C34.375 7.3 35.425 6.25 36.7187 6.25H41.4062C42.7 6.25 43.75 7.3 43.75 8.59375V41.4062C43.75 42.7 42.7 43.75 41.4062 43.75H36.7187C36.0971 43.75 35.501 43.5031 35.0615 43.0635C34.6219 42.624 34.375 42.0278 34.375 41.4062V8.59375Z" stroke="black" stroke-width="3.5" stroke-linecap="round" stroke-linejoin="round"/>
</svg>
