<svg width="134" height="30" viewBox="0 0 134 30" fill="none" xmlns="http://www.w3.org/2000/svg">
<g filter="url(#filter0_di_147_2)">
<path d="M16.7276 2.44418L18.4874 5.99287C18.7274 6.48686 19.3673 6.96069 19.9073 7.05142L23.0969 7.58574C25.1367 7.92852 25.6167 9.42059 24.1468 10.8925L21.6671 13.3927C21.2471 13.8161 21.0172 14.6327 21.1471 15.2175L21.8571 18.3125C22.417 20.7623 21.1271 21.71 18.9774 20.4296L15.9877 18.6452C15.4478 18.3226 14.5579 18.3226 14.0079 18.6452L11.0183 20.4296C8.8785 21.71 7.57865 20.7522 8.13859 18.3125L8.84851 15.2175C8.97849 14.6327 8.74852 13.8161 8.32856 13.3927L5.84884 10.8925C4.389 9.42059 4.85895 7.92852 6.89872 7.58574L10.0884 7.05142C10.6183 6.96069 11.2582 6.48686 11.4982 5.99287L13.258 2.44418C14.2179 0.518608 15.7777 0.518608 16.7276 2.44418Z" fill="#FFC656" stroke="white" stroke-opacity="0.25" stroke-width="0.5" stroke-linecap="round" stroke-linejoin="round"/>
<path d="M42.7276 2.44418L44.4874 5.99287C44.7274 6.48686 45.3673 6.96069 45.9073 7.05142L49.0969 7.58574C51.1367 7.92852 51.6167 9.42059 50.1468 10.8925L47.6671 13.3927C47.2471 13.8161 47.0172 14.6327 47.1471 15.2175L47.8571 18.3125C48.417 20.7623 47.1271 21.71 44.9774 20.4296L41.9877 18.6452C41.4478 18.3226 40.5579 18.3226 40.0079 18.6452L37.0183 20.4296C34.8785 21.71 33.5786 20.7522 34.1386 18.3125L34.8485 15.2175C34.9785 14.6327 34.7485 13.8161 34.3286 13.3927L31.8488 10.8925C30.389 9.42059 30.8589 7.92852 32.8987 7.58574L36.0884 7.05142C36.6183 6.96069 37.2582 6.48686 37.4982 5.99287L39.258 2.44418C40.2179 0.518608 41.7777 0.518608 42.7276 2.44418Z" fill="#FFC656" stroke="white" stroke-opacity="0.25" stroke-width="0.5" stroke-linecap="round" stroke-linejoin="round"/>
<path d="M68.7276 2.44418L70.4874 5.99287C70.7274 6.48686 71.3673 6.96069 71.9073 7.05142L75.0969 7.58574C77.1367 7.92852 77.6167 9.42059 76.1468 10.8925L73.6671 13.3927C73.2471 13.8161 73.0172 14.6327 73.1471 15.2175L73.8571 18.3125C74.417 20.7623 73.1271 21.71 70.9774 20.4296L67.9877 18.6452C67.4478 18.3226 66.5579 18.3226 66.0079 18.6452L63.0183 20.4296C60.8785 21.71 59.5786 20.7522 60.1386 18.3125L60.8485 15.2175C60.9785 14.6327 60.7485 13.8161 60.3286 13.3927L57.8488 10.8925C56.389 9.42059 56.8589 7.92852 58.8987 7.58574L62.0884 7.05142C62.6183 6.96069 63.2582 6.48686 63.4982 5.99287L65.258 2.44418C66.2179 0.518608 67.7777 0.518608 68.7276 2.44418Z" fill="#FFC656" stroke="white" stroke-opacity="0.25" stroke-width="0.5" stroke-linecap="round" stroke-linejoin="round"/>
<path d="M94.7276 2.44418L96.4874 5.99287C96.7274 6.48686 97.3673 6.96069 97.9073 7.05142L101.097 7.58574C103.137 7.92852 103.617 9.42059 102.147 10.8925L99.6671 13.3927C99.2471 13.8161 99.0172 14.6327 99.1471 15.2175L99.8571 18.3125C100.417 20.7623 99.1271 21.71 96.9774 20.4296L93.9877 18.6452C93.4478 18.3226 92.5579 18.3226 92.0079 18.6452L89.0183 20.4296C86.8785 21.71 85.5786 20.7522 86.1386 18.3125L86.8485 15.2175C86.9785 14.6327 86.7485 13.8161 86.3286 13.3927L83.8488 10.8925C82.389 9.42059 82.8589 7.92852 84.8987 7.58574L88.0884 7.05142C88.6183 6.96069 89.2582 6.48686 89.4982 5.99287L91.258 2.44418C92.2179 0.518608 93.7777 0.518608 94.7276 2.44418Z" fill="#FFC656" stroke="white" stroke-opacity="0.25" stroke-width="0.5" stroke-linecap="round" stroke-linejoin="round"/>
<path d="M120.728 2.44418L122.487 5.99287C122.727 6.48686 123.367 6.96069 123.907 7.05142L127.097 7.58574C129.137 7.92852 129.617 9.42059 128.147 10.8925L125.667 13.3927C125.247 13.8161 125.017 14.6327 125.147 15.2175L125.857 18.3125C126.417 20.7623 125.127 21.71 122.977 20.4296L119.988 18.6452C119.448 18.3226 118.558 18.3226 118.008 18.6452L115.018 20.4296C112.878 21.71 111.579 20.7522 112.139 18.3125L112.849 15.2175C112.978 14.6327 112.749 13.8161 112.329 13.3927L109.849 10.8925C108.389 9.42059 108.859 7.92852 110.899 7.58574L114.088 7.05142C114.618 6.96069 115.258 6.48686 115.498 5.99287L117.258 2.44418C118.218 0.518608 119.778 0.518608 120.728 2.44418Z" fill="#FFC656" stroke="white" stroke-opacity="0.25" stroke-width="0.5" stroke-linecap="round" stroke-linejoin="round"/>
</g>
<defs>
<filter id="filter0_di_147_2" x="0.749512" y="0.75" width="132.501" height="28.5005" filterUnits="userSpaceOnUse" color-interpolation-filters="sRGB">
<feFlood flood-opacity="0" result="BackgroundImageFix"/>
<feColorMatrix in="SourceAlpha" type="matrix" values="0 0 0 0 0 0 0 0 0 0 0 0 0 0 0 0 0 0 127 0" result="hardAlpha"/>
<feOffset dy="4"/>
<feGaussianBlur stdDeviation="2"/>
<feComposite in2="hardAlpha" operator="out"/>
<feColorMatrix type="matrix" values="0 0 0 0 0 0 0 0 0 0 0 0 0 0 0 0 0 0 0.1 0"/>
<feBlend mode="normal" in2="BackgroundImageFix" result="effect1_dropShadow_147_2"/>
<feBlend mode="normal" in="SourceGraphic" in2="effect1_dropShadow_147_2" result="shape"/>
<feColorMatrix in="SourceAlpha" type="matrix" values="0 0 0 0 0 0 0 0 0 0 0 0 0 0 0 0 0 0 127 0" result="hardAlpha"/>
<feOffset dy="2"/>
<feGaussianBlur stdDeviation="2"/>
<feComposite in2="hardAlpha" operator="arithmetic" k2="-1" k3="1"/>
<feColorMatrix type="matrix" values="0 0 0 0 0 0 0 0 0 0 0 0 0 0 0 0 0 0 0.25 0"/>
<feBlend mode="normal" in2="shape" result="effect2_innerShadow_147_2"/>
</filter>
</defs>
</svg>
